<?xml version="1.0" encoding="UTF-8"?>
<svg id="_图层_1" data-name="图层_1" xmlns="http://www.w3.org/2000/svg" viewBox="0 0 256.13 45.49">
  <defs>
    <style>
      .cls-1 {
        fill: #9fb9b3;
      }

      .cls-2 {
        fill: #87bec2;
      }

      .cls-3 {
        fill: #90bdbd;
      }

      .cls-4 {
        fill: #b3b6a7;
      }

      .cls-5 {
        fill: #bfb8a6;
      }

      .cls-6 {
        fill: #a4bdb6;
      }

      .cls-7 {
        fill: #82bcc0;
      }

      .cls-8 {
        fill: #8ababa;
      }

      .cls-9 {
        fill: #76c0ca;
      }

      .cls-10 {
        fill: #b7c4bb;
      }

      .cls-11 {
        fill: #b7bbad;
      }

      .cls-12 {
        fill: #7fbfc7;
      }

      .cls-13 {
        fill: #aebcb0;
      }

      .cls-14 {
        fill: #9bbdba;
      }

      .cls-15 {
        fill: #a7b8ab;
      }

      .cls-16 {
        fill: #80c0c7;
      }
    </style>
  </defs>
  <path class="cls-13" d="M80.88,30.5c-3.8,0-7.59.07-11.39-.03-1.62-.04-1.98.4-1.42,1.92,2.59,7.14,12.02,10.77,19.01,4.37.48-.44.9-.93,1.4-1.33.93-.76,1.97-.78,2.88-.04.84.68,1.33,1.52.97,2.75-.35,1.17-1.15,1.93-1.98,2.68-4.88,4.45-10.54,5.88-16.77,3.58-6.67-2.47-10.7-7.32-11.44-14.49-.95-9.2,4.8-16.3,12.48-18.63,10.26-3.11,21.83,6.03,21.06,16.68-.17,2.33-1.79,2.47-3.4,2.5-3.79.09-7.59.03-11.39.03ZM90.23,26.2c0-.17-.01-.34-.02-.51.08-1.09-.1-2.1-.95-2.88-2.5-4.78-6.89-7.31-11.67-6.74-4.71.57-8.78,4.2-9.74,8.67-.13.3-.26.6-.39.9-.01.18-.03.37-.04.55.48.58,1.15.48,1.78.48,6.42,0,12.83,0,19.25,0,.63,0,1.3.1,1.78-.48Z"/>
  <path class="cls-5" d="M13.74.04c6.14.05,10.82,3.36,13.04,8.99.71,1.8.64,3.47-1.27,4.31-1.92.85-2.94-.72-3.42-2.14-1.77-5.28-6.91-6.78-11.36-5.41-3.1.95-4.96,3.12-5.3,6.24-.33,3.02,1.74,4.7,4.3,5.73,3.21,1.29,6.47,2.49,9.73,3.68,6.49,2.36,9.42,6.09,9.16,11.75-.25,5.46-4.13,9.91-10.07,11.57-7.85,2.18-16.04-2.19-18.28-9.71-.49-1.66-.45-3.16,1.38-3.8,1.79-.63,3.04.39,3.51,2.04,1.7,6.05,8.26,8.87,14.68,5.26,2.28-1.28,3.39-3.28,3.47-5.93.07-2.53-1.32-3.98-3.3-5.18-2.87-1.74-6.16-2.38-9.24-3.55-3.02-1.15-6.16-2.22-8.24-4.82C-2.7,12.54.95,2.91,9.44.61,10.92.21,12.42-.12,13.74.04Z"/>
  <path class="cls-3" d="M176.64,43.17c-.44,1.39-1.56,1.57-2.72,1.33-1.75-.36-1.94-1.94-2.31-3.55-1.58,1.25-3.18,2.25-4.91,3.04-10.05,4.56-22.05-2.81-23.25-13.75-1.1-10,6.05-17.28,12.56-19.01,9.68-2.57,20.17,4.58,20.96,14.69.42,5.36.11,10.78.1,16.17,0,.36-.29.72-.44,1.07,0-5.45,0-10.91,0-16.36-.5,5.11-.51,10.22-.48,15.33,0,.35.32.7.48,1.05ZM171.79,28.15c-.02-6.72-5.16-12.14-11.51-12.13-6.41.01-11.85,5.52-11.77,11.95.07,6.57,5.42,12.19,11.61,12.18,6.39,0,11.69-5.46,11.68-12.01Z"/>
  <path class="cls-9" d="M244.86,10.74c3.22.16,6.46,1.6,8.56,5.13.91,1.52,1.01,2.91-.61,3.99-1.58,1.05-2.7.23-3.74-.99-2.5-2.94-4.76-3.55-7.82-2.15-1.15.53-2.07,1.29-2.23,2.64-.17,1.4.65,2.2,1.73,2.92,2.05,1.36,4.47,1.84,6.67,2.85,1.02.47,2.09.86,3.09,1.39,3.52,1.89,5.87,4.68,5.61,8.84-.27,4.44-2.76,7.57-6.88,9.1-6.96,2.58-12.92,0-15.75-5.86-.76-1.58-.9-3.03.85-3.93,1.61-.83,2.85-.26,3.86,1.3,2.48,3.83,5.14,4.79,8.97,3.45,2-.7,3.31-2.02,3.62-4.12.32-2.17-1.22-3.23-2.86-4.01-2.54-1.22-5.17-2.26-7.76-3.39-4.76-2.08-7.33-5.7-6.6-9.27.94-4.59,5.4-7.94,11.29-7.9Z"/>
  <path class="cls-11" d="M45.12,2.01c1.04,2.39.38,4.91.42,7.35.03,1.77.48,2.54,2.33,2.34,1.04-.12,2.1-.03,3.15-.01,1.29.02,2.19.56,2.37,1.91.18,1.34-.59,2.1-1.74,2.57-1.32.54-2.72.31-4.08.27-1.42-.04-2.03.39-2.01,1.91.08,4.67-.1,9.34.08,14,.12,3.15,1.59,5.69,4.65,7.06.74.33,1.49.64,2.17,1.07,1.22.75,1.33,1.87.97,3.16-.37,1.3-1.31,1.57-2.44,1.41-3.98-.55-6.77-2.85-8.74-6.2-1.24-2.11-1.95-4.44-1.96-6.89-.04-9.34,0-18.68-.03-28.01,0-1.42.32-2.55,1.78-3.07,1.34-.48,2.35-.07,3.07,1.13-1.09,3.01-.2,6.07,0,9.11V2.01ZM44.99,17.16c-.08,0-.16.02-.24.03v16.19h.24v-16.22Z"/>
  <path class="cls-14" d="M131.48,22.57c0,6.12-.02,12.24,0,18.36,0,1.85-.27,3.47-2.54,3.66-1.75.15-2.8-1.25-2.8-3.68,0-12.24,0-24.47-.02-36.71,0-1.92.53-3.54,2.67-3.56,2.21-.02,2.67,1.75,2.68,3.58.02,6.12,0,12.24,0,18.36Z"/>
  <path class="cls-6" d="M112.09,2c.75.72.48,1.66.49,2.51.02,12.14,0,24.29.03,36.43,0,1.87-.21,3.51-2.49,3.62-2.35.11-2.78-1.76-2.79-3.47-.07-12.39-.05-24.77,0-37.16,0-1.39.44-2.77,2.06-3.2,1.21-.32,2.25-.1,2.71,1.25-.73.63-.51,1.48-.51,2.26-.01,12.29-.01,24.58.01,36.88,0,.43-.33,1.02.49,1.43V2Z"/>
  <path class="cls-2" d="M194.1,42.68c-.26,1.48-1.25,2.01-2.62,1.88-1.14-.11-2.17-.81-2.15-1.95.11-6.71-1.22-13.53.76-20.11,1.86-6.19,6.34-9.85,12.57-11.49,1.53-.4,2.49.18,3.17,1.46.71,1.33.15,2.35-.91,3.13-.57.42-1.27.68-1.95.92-5.52,1.92-8.42,5.93-8.46,11.8-.03,4.34,0,8.68-.01,13.02,0,.49-.02.97-.41,1.34,0-5.78,0-11.55,0-17.33-.5,5.43-.51,10.86-.48,16.28,0,.35.31.7.48,1.05Z"/>
  <path class="cls-16" d="M216.36,28.27c0-4.27-.02-8.53,0-12.8,0-1.71.26-3.38,2.52-3.33,2.18.04,2.81,1.49,2.81,3.43-.01,8.45,0,16.9-.01,25.36,0,1.83-.45,3.46-2.64,3.65-1.79.16-2.67-1.13-2.68-3.75-.02-4.19,0-8.37,0-12.56Z"/>
  <path class="cls-12" d="M215.4,4.06c.04-1.93,1.67-3.54,3.56-3.51,2.03.03,3.75,1.81,3.65,3.76-.09,1.62-2.19,3.54-3.82,3.49-1.78-.06-3.42-1.87-3.38-3.73Z"/>
  <path class="cls-10" d="M67.47,25.64c7.58.01,15.17.03,22.75.04,0,.17.01.34.02.51-7.6,0-15.2,0-22.8,0,.01-.18.03-.37.04-.55Z"/>
  <path class="cls-15" d="M67.43,26.2c7.6,0,15.2,0,22.8,0-.48.58-1.15.48-1.78.48-6.42,0-12.83,0-19.25,0-.63,0-1.3.1-1.78-.48Z"/>
  <path class="cls-8" d="M176.64,43.17c-.17-.35-.48-.7-.48-1.05-.03-5.11-.02-10.22.48-15.33,0,5.45,0,10.91,0,16.36,0,0,0,.01,0,.01Z"/>
  <path class="cls-4" d="M44.99,17.16v16.22h-.24v-16.19c.08,0,.16-.02.24-.03Z"/>
  <path class="cls-4" d="M45.12,2.01v9.11c-.2-3.04-1.09-6.1,0-9.11,0,0,0,0,0,0Z"/>
  <path class="cls-1" d="M112.09,2v40.56c-.83-.41-.49-.99-.49-1.43-.02-12.29-.02-24.58-.01-36.88,0-.78-.22-1.63.51-2.26,0,0,0,0,0,0Z"/>
  <path class="cls-7" d="M194.1,42.68c-.17-.35-.48-.7-.48-1.05-.03-5.43-.02-10.86.48-16.28,0,5.78,0,11.55,0,17.33,0,0,0,0,0,0Z"/>
</svg>